<svg width="317" height="60" viewBox="0 0 317 60" fill="none" xmlns="http://www.w3.org/2000/svg">
<g clip-path="url(#clip0_542_163)">
<path d="M40.65 19.4H50.8V22.85H40.65V19.4ZM49.55 7.65H53.7V34.6H49.55V7.65ZM38.8 36C41.9333 36 44.6167 36.3333 46.85 37C49.1167 37.6667 50.85 38.6333 52.05 39.9C53.25 41.1333 53.85 42.65 53.85 44.45C53.85 47.1167 52.5 49.1833 49.8 50.65C47.1333 52.1167 43.4667 52.85 38.8 52.85C34.1333 52.85 30.45 52.1167 27.75 50.65C25.0833 49.1833 23.75 47.1167 23.75 44.45C23.75 42.65 24.35 41.1333 25.55 39.9C26.7833 38.6333 28.5167 37.6667 30.75 37C33.0167 36.3333 35.7 36 38.8 36ZM38.8 39.25C36.5333 39.25 34.5833 39.45 32.95 39.85C31.3167 40.25 30.05 40.8333 29.15 41.6C28.2833 42.3667 27.85 43.3167 27.85 44.45C27.85 45.5167 28.2833 46.4333 29.15 47.2C30.05 47.9667 31.3167 48.5667 32.95 49C34.5833 49.4 36.5333 49.6 38.8 49.6C41.1 49.6 43.05 49.4 44.65 49C46.2833 48.5667 47.5333 47.9667 48.4 47.2C49.3 46.4333 49.75 45.5167 49.75 44.45C49.75 43.3167 49.3 42.3667 48.4 41.6C47.5333 40.8333 46.2833 40.25 44.65 39.85C43.05 39.45 41.1 39.25 38.8 39.25ZM28 12.25H31.4V15.9C31.4 18.6667 30.8667 21.2667 29.8 23.7C28.7667 26.1 27.3 28.2167 25.4 30.05C23.5 31.85 21.3 33.2333 18.8 34.2L16.65 30.9C18.35 30.3 19.8833 29.4833 21.25 28.45C22.65 27.4167 23.85 26.2333 24.85 24.9C25.8833 23.5667 26.6667 22.1333 27.2 20.6C27.7333 19.0667 28 17.5 28 15.9V12.25ZM28.8 12.25H32.2V15.85C32.2 17.7833 32.65 19.6667 33.55 21.5C34.45 23.3333 35.7333 24.95 37.4 26.35C39.0667 27.75 40.9833 28.85 43.15 29.65L41.05 32.95C38.5833 32.05 36.4333 30.75 34.6 29.05C32.7667 27.3167 31.3333 25.3167 30.3 23.05C29.3 20.7833 28.8 18.3833 28.8 15.85V12.25ZM17.95 10.95H42.1V14.35H17.95V10.95ZM95.1961 7.65H99.3461V52.9H95.1961V7.65ZM63.3461 44.05L62.7461 40.5C65.6128 40.5 68.7128 40.4833 72.0461 40.45C75.3794 40.4167 78.7794 40.3 82.2461 40.1C85.7128 39.9 89.0628 39.6 92.2961 39.2L92.5961 42.25C89.2294 42.8167 85.8294 43.2333 82.3961 43.5C78.9628 43.7333 75.6128 43.8833 72.3461 43.95C69.1128 44.0167 66.1128 44.05 63.3461 44.05ZM63.6961 13.75H91.1461V17.1H63.6961V13.75ZM77.4461 19.6C79.5794 19.6 81.4461 19.95 83.0461 20.65C84.6794 21.35 85.9461 22.3333 86.8461 23.6C87.7794 24.8667 88.2461 26.3667 88.2461 28.1C88.2461 29.8 87.7794 31.2833 86.8461 32.55C85.9461 33.8167 84.6794 34.8167 83.0461 35.55C81.4461 36.25 79.5794 36.6 77.4461 36.6C75.3461 36.6 73.4794 36.25 71.8461 35.55C70.2128 34.8167 68.9461 33.8167 68.0461 32.55C67.1461 31.2833 66.6961 29.8 66.6961 28.1C66.6961 26.3667 67.1461 24.8667 68.0461 23.6C68.9461 22.3333 70.2128 21.35 71.8461 20.65C73.4794 19.95 75.3461 19.6 77.4461 19.6ZM77.4461 22.85C76.1128 22.85 74.9294 23.0667 73.8961 23.5C72.8628 23.9333 72.0461 24.55 71.4461 25.35C70.8794 26.1167 70.5961 27.0333 70.5961 28.1C70.5961 29.1333 70.8794 30.05 71.4461 30.85C72.0461 31.65 72.8628 32.2667 73.8961 32.7C74.9294 33.1333 76.1128 33.35 77.4461 33.35C78.8128 33.35 79.9961 33.1333 80.9961 32.7C82.0294 32.2667 82.8294 31.65 83.3961 30.85C83.9961 30.05 84.2961 29.1333 84.2961 28.1C84.2961 27.0333 83.9961 26.1167 83.3961 25.35C82.8294 24.55 82.0294 23.9333 80.9961 23.5C79.9961 23.0667 78.8128 22.85 77.4461 22.85ZM75.3461 8.15H79.5461V15.9H75.3461V8.15ZM119.892 10.2H123.342V14.85C123.342 17.7833 122.809 20.4833 121.742 22.95C120.709 25.4167 119.242 27.5833 117.342 29.45C115.476 31.2833 113.242 32.6833 110.642 33.65L108.442 30.3C110.776 29.4667 112.792 28.2833 114.492 26.75C116.192 25.2167 117.509 23.4333 118.442 21.4C119.409 19.3333 119.892 17.15 119.892 14.85V10.2ZM120.642 10.2H123.992V14.7C123.992 16.8333 124.459 18.85 125.392 20.75C126.326 22.65 127.609 24.3333 129.242 25.8C130.909 27.2333 132.842 28.3167 135.042 29.05L132.792 32.3C130.359 31.3667 128.226 30.05 126.392 28.35C124.559 26.65 123.142 24.6333 122.142 22.3C121.142 19.9667 120.642 17.4333 120.642 14.7V10.2ZM141.542 7.65H145.692V34.4H141.542V7.65ZM130.792 35.75C135.459 35.75 139.126 36.5 141.792 38C144.492 39.5 145.842 41.6 145.842 44.3C145.842 46.9667 144.492 49.05 141.792 50.55C139.126 52.05 135.459 52.8 130.792 52.8C126.126 52.8 122.442 52.05 119.742 50.55C117.076 49.05 115.742 46.9667 115.742 44.3C115.742 41.6 117.076 39.5 119.742 38C122.442 36.5 126.126 35.75 130.792 35.75ZM130.792 39.05C128.526 39.05 126.576 39.2667 124.942 39.7C123.309 40.1 122.042 40.7 121.142 41.5C120.276 42.2667 119.842 43.2 119.842 44.3C119.842 45.3667 120.276 46.3 121.142 47.1C122.042 47.8667 123.309 48.4667 124.942 48.9C126.576 49.3 128.526 49.5 130.792 49.5C133.092 49.5 135.042 49.3 136.642 48.9C138.276 48.4667 139.526 47.8667 140.392 47.1C141.292 46.3 141.742 45.3667 141.742 44.3C141.742 43.2 141.292 42.2667 140.392 41.5C139.526 40.7 138.276 40.1 136.642 39.7C135.042 39.2667 133.092 39.05 130.792 39.05ZM131.692 17.2H142.392V20.65H131.692V17.2ZM178.627 33.5H182.727V45.6H178.627V33.5ZM193.177 33.5H197.277V45.6H193.177V33.5ZM167.477 43.65H208.477V47.15H167.477V43.65ZM185.577 10.65H189.227V14.1C189.227 16 188.877 17.8 188.177 19.5C187.477 21.1667 186.527 22.7167 185.327 24.15C184.16 25.5833 182.777 26.8667 181.177 28C179.61 29.1 177.927 30.05 176.127 30.85C174.36 31.6167 172.543 32.1833 170.677 32.55L168.977 29.1C170.577 28.8333 172.177 28.3833 173.777 27.75C175.377 27.0833 176.877 26.2833 178.277 25.35C179.71 24.3833 180.96 23.3167 182.027 22.15C183.127 20.95 183.993 19.6833 184.627 18.35C185.26 16.9833 185.577 15.5667 185.577 14.1V10.65ZM186.327 10.65H189.927V14.1C189.927 15.5667 190.243 16.9833 190.877 18.35C191.51 19.7167 192.377 21 193.477 22.2C194.577 23.3667 195.843 24.4333 197.277 25.4C198.71 26.3333 200.227 27.1167 201.827 27.75C203.427 28.3833 205.027 28.8333 206.627 29.1L204.877 32.55C203.043 32.1833 201.227 31.6167 199.427 30.85C197.627 30.05 195.943 29.1 194.377 28C192.81 26.8667 191.41 25.5833 190.177 24.15C188.977 22.7167 188.027 21.1667 187.327 19.5C186.66 17.8 186.327 16 186.327 14.1V10.65ZM215.473 11.55H239.773V14.95H215.473V11.55ZM214.723 32.15L214.223 28.7C216.823 28.7 219.689 28.6667 222.823 28.6C225.989 28.5333 229.206 28.4167 232.473 28.25C235.773 28.05 238.923 27.7667 241.923 27.4L242.223 30.5C239.156 31 235.989 31.3667 232.723 31.6C229.456 31.8333 226.273 31.9833 223.173 32.05C220.106 32.1167 217.289 32.15 214.723 32.15ZM219.923 13.95H223.923V30.3H219.923V13.95ZM231.273 13.95H235.323V30.3H231.273V13.95ZM246.373 7.7H250.523V35.4H246.373V7.7ZM235.623 36.4C240.356 36.4 244.073 37.1167 246.773 38.55C249.473 39.95 250.823 41.95 250.823 44.55C250.823 47.15 249.473 49.1667 246.773 50.6C244.073 52.0667 240.356 52.8 235.623 52.8C230.923 52.8 227.223 52.0667 224.523 50.6C221.823 49.1667 220.473 47.15 220.473 44.55C220.473 41.95 221.823 39.95 224.523 38.55C227.223 37.1167 230.923 36.4 235.623 36.4ZM235.623 39.65C233.356 39.65 231.389 39.85 229.723 40.25C228.056 40.6167 226.773 41.1667 225.873 41.9C225.006 42.6333 224.573 43.5167 224.573 44.55C224.573 45.6167 225.006 46.5167 225.873 47.25C226.773 47.9833 228.056 48.55 229.723 48.95C231.389 49.35 233.356 49.55 235.623 49.55C237.923 49.55 239.889 49.35 241.523 48.95C243.189 48.55 244.456 47.9833 245.323 47.25C246.223 46.5167 246.673 45.6167 246.673 44.55C246.673 43.5167 246.223 42.6333 245.323 41.9C244.456 41.1667 243.189 40.6167 241.523 40.25C239.889 39.85 237.923 39.65 235.623 39.65ZM259.469 27.35H300.319V30.75H259.469V27.35ZM277.769 21.6H281.869V28.5H277.769V21.6ZM264.769 9.15H295.019V22.95H264.769V9.15ZM290.919 12.45H268.819V19.65H290.919V12.45ZM264.419 34.45H295.069V44.65H268.569V50.15H264.519V41.6H291.019V37.65H264.419V34.45ZM264.519 49.15H296.419V52.4H264.519V49.15Z" fill="#293681"/>
</g>
<defs>
<clipPath id="clip0_542_163">
<rect width="316.16" height="60" fill="white"/>
</clipPath>
</defs>
</svg>
